<?xml version="1.0" encoding="UTF-8"?>
<!DOCTYPE svg PUBLIC "-//W3C//DTD SVG 1.1//EN" "http://www.w3.org/Graphics/SVG/1.1/DTD/svg11.dtd">
<svg version="1.1" xmlns="http://www.w3.org/2000/svg" xmlns:xlink="http://www.w3.org/1999/xlink" x="0" y="0" width="500" height="500" viewBox="0, 0, 500, 500">
  <g id="Background">
    <rect x="0" y="0" width="500" height="500" fill="#0E0C0C" fill-opacity="0"/>
  </g>
  <g id="Layer_1">
    <path d="M57.982,251.437 Q57.982,171.495 109.448,116.894 Q162.743,60.725 245.559,60.725 Q278.737,60.725 311.655,73.135 Q344.572,85.544 352.671,85.544 Q361.292,85.544 366.517,79.535 Q371.742,73.526 375.138,61.248 L390.029,61.248 L390.029,186.386 L376.444,186.386 Q357.112,145.631 336.996,122.119 Q299.376,78.751 251.829,78.751 Q200.101,78.751 176.328,123.686 Q152.554,168.621 152.554,250.131 Q152.554,317.01 174.63,369.391 Q196.705,421.771 259.927,421.771 Q294.151,421.771 305.907,407.402 Q312.7,399.304 312.7,382.845 L312.7,326.415 Q312.7,302.119 297.809,294.543 Q288.142,289.84 258.621,289.318 L258.621,275.733 L442.018,275.733 L442.018,289.318 Q414.325,290.363 405.312,300.421 Q396.299,310.479 396.299,338.171 L396.299,406.357 Q378.534,417.33 338.825,428.302 Q299.115,439.275 250,439.275 Q160.914,439.275 107.619,383.106 Q57.982,330.595 57.982,251.437 z" fill="#6FA6CE"/>
  </g>
</svg>
